<svg width="110" height="12" viewBox="0 0 110 12" fill="none" xmlns="http://www.w3.org/2000/svg">
<path d="M29.0625 9.52874V0.806241H27.7256V10.9825H33.945V9.64504H29.1788C29.1206 9.70319 29.0625 9.58689 29.0625 9.52874ZM43.1287 0.689941C41.7337 0.689941 40.3969 1.27144 39.4088 2.25999C38.4206 3.24854 37.8975 4.58599 37.8975 5.92344C37.8975 7.31904 38.4206 8.59834 39.4088 9.58689C40.3388 10.5754 41.7337 11.1569 43.1287 11.1569C44.5237 11.1569 45.8606 10.6336 46.8488 9.58689C47.8369 8.59834 48.36 7.26089 48.36 5.92344C48.36 4.52784 47.8369 3.24854 46.8488 2.25999C45.8606 1.21329 44.5237 0.689941 43.1287 0.689941ZM45.8606 8.65649C45.105 9.41244 44.1169 9.81949 43.1287 9.81949C42.1406 9.81949 41.1525 9.41244 40.3969 8.65649C39.6413 7.90054 39.2344 6.97014 39.2344 5.92344C39.2344 4.87674 39.6413 3.94634 40.3969 3.19039C41.0944 2.43444 42.0825 2.02739 43.1287 2.02739C44.1169 2.02739 45.1631 2.43444 45.8606 3.19039C46.5581 3.94634 46.965 4.87674 46.965 5.92344C47.0231 6.97014 46.6163 7.90054 45.8606 8.65649ZM16.74 9.52874V6.73754C16.74 6.67939 16.7981 6.62124 16.8563 6.62124H21.4481V5.28379H16.8563C16.7981 5.28379 16.74 5.22564 16.74 5.16749V2.37629C16.74 2.31814 16.7981 2.25999 16.8563 2.25999H21.5644V0.922541H15.4031V11.0988H21.6225V9.76134H16.8563C16.7981 9.70319 16.74 9.58689 16.74 9.52874ZM4.76625 8.36574C4.76625 8.42389 4.70813 8.42389 4.65 8.42389C4.59188 8.42389 4.53375 8.42389 4.53375 8.36574L1.51125 0.806241H0L4.12688 10.9825H5.115L9.24187 0.806241V0.748092H7.78875L4.76625 8.36574ZM94.1044 2.14369H97.1269C97.185 2.14369 97.2431 2.20184 97.2431 2.25999V10.9825H98.58V2.25999C98.58 2.20184 98.6381 2.14369 98.6963 2.14369H101.719V0.806241H94.0463V2.14369H94.1044ZM55.5675 3.59744V2.25999C55.5675 2.20184 55.5675 2.20184 55.6256 2.20184H57.9506C58.4156 2.20184 58.8225 2.31814 59.1713 2.60889C59.6363 2.95779 59.8688 3.48114 59.8688 4.06264C59.8688 4.41154 59.7525 4.81859 59.52 5.10934C59.2875 5.40009 59.2875 5.80714 59.5781 6.09789C59.6944 6.21419 59.8688 6.27234 60.0431 6.27234C60.2175 6.27234 60.3919 6.21419 60.5081 6.09789L60.5662 6.03974C61.0312 5.51639 61.2638 4.76044 61.2638 4.06264C61.2638 3.30669 61.0313 2.55074 60.5081 1.96924C60.1013 1.44589 59.2875 0.806241 57.8925 0.806241H54.1725V11.0406H55.5675V6.03974C55.5675 6.03974 55.5675 5.98159 55.6256 5.98159H55.6838L59.9269 10.9825L59.985 11.0406H61.7869L58.59 7.26089L55.5675 3.59744ZM107.88 11.0406H109.275V0.806241H107.88V11.0406ZM80.2706 2.14369H83.2931C83.3513 2.14369 83.4094 2.20184 83.4094 2.25999V10.9825H84.7463V2.25999C84.7463 2.20184 84.8044 2.14369 84.8625 2.14369H87.885V0.806241H80.2125V2.14369H80.2706ZM69.285 9.64504C69.285 9.64504 69.2269 9.58689 69.2269 9.52874V6.73754C69.2269 6.67939 69.285 6.62124 69.3431 6.62124H73.935V5.28379H69.3431C69.285 5.28379 69.2269 5.22564 69.2269 5.16749V2.37629C69.2269 2.31814 69.285 2.25999 69.3431 2.25999H73.9931V0.922541H67.8319V11.0988H74.0513V9.76134H69.3431C69.3431 9.70319 69.3431 9.64504 69.285 9.64504Z" fill="#141615"/>
</svg>
