<svg width="150" height="150" viewBox="0 0 150 150" fill="none" xmlns="http://www.w3.org/2000/svg">
<g clip-path="url(#clip0_206_94)">
<path fill-rule="evenodd" clip-rule="evenodd" d="M75 150C33.6207 150 0 116.379 0 75C0 33.6207 33.6207 0 75 0C116.379 0 150 33.6207 150 75C150 116.379 116.379 150 75 150ZM70.3448 90.7759H40.6034L47.069 80.1724H67.2414L73.7069 69.8276H31.5517L25.0862 80.1724H34.6552L21.4655 101.121H76.0345L96.4655 68.5345L103.707 80.1724H97.5L91.0345 90.7759H110.172L116.638 101.121H129.052L96.7241 48.8793L70.3448 90.7759ZM87.4138 48.8793H43.9655L37.5 59.2241H80.9483L87.4138 48.8793Z" fill="#8C8C8D"/>
</g>
<defs>
<clipPath id="clip0_206_94">
<rect width="150" height="150" fill="white"/>
</clipPath>
</defs>
</svg>
